<svg width="62" height="91" viewBox="0 0 62 91" fill="none" xmlns="http://www.w3.org/2000/svg">
<mask id="path-1-inside-1" fill="white">
<path fill-rule="evenodd" clip-rule="evenodd" d="M11.0037 49.3653C4.82291 51.0561 0.316406 56.3115 0.316406 62.5315C0.316406 64.1614 7.01758 68.2411 15.2858 68.2411C23.5541 68.2411 30.2569 64.6401 30.2569 62.5315C30.2569 56.3112 25.7511 51.0556 19.5702 49.3651V49.1421C22.1306 47.4901 23.8529 44.4025 23.8529 40.8654C23.8529 35.5877 20.0166 31.3105 15.2864 31.3105C10.5546 31.3105 6.71995 35.5877 6.71995 40.8654C6.71995 44.4027 8.44314 47.4904 11.0037 49.1423V49.3653Z"/>
</mask>
<path fill-rule="evenodd" clip-rule="evenodd" d="M11.0037 49.3653C4.82291 51.0561 0.316406 56.3115 0.316406 62.5315C0.316406 64.1614 7.01758 68.2411 15.2858 68.2411C23.5541 68.2411 30.2569 64.6401 30.2569 62.5315C30.2569 56.3112 25.7511 51.0556 19.5702 49.3651V49.1421C22.1306 47.4901 23.8529 44.4025 23.8529 40.8654C23.8529 35.5877 20.0166 31.3105 15.2864 31.3105C10.5546 31.3105 6.71995 35.5877 6.71995 40.8654C6.71995 44.4027 8.44314 47.4904 11.0037 49.1423V49.3653Z" fill="white"/>
<path d="M11.0037 49.3653L11.7953 52.259L14.0037 51.6549V49.3653H11.0037ZM19.5702 49.3651H16.5702V51.6547L18.7787 52.2588L19.5702 49.3651ZM19.5702 49.1421L17.9437 46.6212L16.5702 47.5074V49.1421H19.5702ZM11.0037 49.1423H14.0037V47.5076L12.63 46.6214L11.0037 49.1423ZM10.2121 46.4716C2.91513 48.4678 -2.68359 54.7742 -2.68359 62.5315H3.31641C3.31641 57.8489 6.73068 53.6445 11.7953 52.259L10.2121 46.4716ZM-2.68359 62.5315C-2.68359 63.6903 -2.13195 64.5719 -1.78498 65.0374C-1.38638 65.5723 -0.890207 66.043 -0.392195 66.4452C0.614008 67.2578 1.94538 68.0448 3.46548 68.7315C6.51719 70.1101 10.6788 71.2411 15.2858 71.2411V65.2411C11.6246 65.2411 8.30151 64.3323 5.93557 63.2635C4.74685 62.7265 3.88616 62.188 3.37751 61.7773C3.25565 61.6789 3.16633 61.5976 3.10452 61.5362C3.04105 61.4731 3.02011 61.4442 3.02597 61.4521C3.02858 61.4556 3.08731 61.5333 3.15177 61.6839C3.21466 61.8309 3.31641 62.1258 3.31641 62.5315H-2.68359ZM15.2858 71.2411C19.8317 71.2411 23.977 70.2562 27.0561 68.9335C28.5859 68.2763 29.9586 67.4903 31.006 66.6137C31.529 66.1759 32.0458 65.6533 32.4518 65.042C32.8477 64.4459 33.2569 63.5837 33.2569 62.5315H27.2569C27.2569 62.2639 27.3101 62.0573 27.3565 61.9284C27.4019 61.8018 27.4466 61.7332 27.4537 61.7224C27.4609 61.7116 27.3894 61.8164 27.1548 62.0127C26.687 62.4043 25.8673 62.914 24.6879 63.4206C22.3484 64.4256 19.0082 65.2411 15.2858 65.2411V71.2411ZM33.2569 62.5315C33.2569 54.7741 27.6592 48.4673 20.3616 46.4713L18.7787 52.2588C23.843 53.6439 27.2569 57.8483 27.2569 62.5315H33.2569ZM16.5702 49.1421V49.3651H22.5702V49.1421H16.5702ZM21.1967 51.6629C24.6616 49.4273 26.8529 45.3626 26.8529 40.8654H20.8529C20.8529 43.4424 19.5995 45.5529 17.9437 46.6212L21.1967 51.6629ZM26.8529 40.8654C26.8529 34.247 21.9728 28.3105 15.2864 28.3105V34.3105C18.0604 34.3105 20.8529 36.9284 20.8529 40.8654H26.8529ZM15.2864 28.3105C8.59809 28.3105 3.71995 34.2473 3.71995 40.8654H9.71995C9.71995 36.9281 12.5112 34.3105 15.2864 34.3105V28.3105ZM3.71995 40.8654C3.71995 45.3633 5.91247 49.4279 9.37741 51.6632L12.63 46.6214C10.9738 45.5529 9.71995 43.442 9.71995 40.8654H3.71995ZM14.0037 49.3653V49.1423H8.00373V49.3653H14.0037Z" fill="#202058" mask="url(#path-1-inside-1)"/>
<mask id="path-3-inside-2" fill="white">
<path fill-rule="evenodd" clip-rule="evenodd" d="M42.592 49.2937C36.4361 50.9779 31.9478 56.2122 31.9478 62.4071C31.9478 64.0305 38.6221 68.0939 46.8573 68.0939C55.0924 68.0939 61.7685 64.5073 61.7685 62.4071C61.7685 56.2116 57.2805 50.977 51.1242 49.2933V49.071C53.6746 47.4257 55.3902 44.3503 55.3902 40.8272C55.3902 35.5706 51.5692 31.3105 46.858 31.3105C42.1451 31.3105 38.3258 35.5706 38.3258 40.8272C38.3258 44.3501 40.0419 47.4254 42.592 49.0707V49.2937Z"/>
</mask>
<path fill-rule="evenodd" clip-rule="evenodd" d="M42.592 49.2937C36.4361 50.9779 31.9478 56.2122 31.9478 62.4071C31.9478 64.0305 38.6221 68.0939 46.8573 68.0939C55.0924 68.0939 61.7685 64.5073 61.7685 62.4071C61.7685 56.2116 57.2805 50.977 51.1242 49.2933V49.071C53.6746 47.4257 55.3902 44.3503 55.3902 40.8272C55.3902 35.5706 51.5692 31.3105 46.858 31.3105C42.1451 31.3105 38.3258 35.5706 38.3258 40.8272C38.3258 44.3501 40.0419 47.4254 42.592 49.0707V49.2937Z" fill="white"/>
<path d="M42.592 49.2937L43.3837 52.1874L45.592 51.5832V49.2937H42.592ZM51.1242 49.2933H48.1242V51.583L50.3328 52.187L51.1242 49.2933ZM51.1242 49.071L49.4979 46.5501L48.1242 47.4363V49.071H51.1242ZM42.592 49.0707H45.592V47.4361L44.2185 46.5499L42.592 49.0707ZM41.8004 46.4001C34.5283 48.3896 28.9478 54.6748 28.9478 62.4071H34.9478C34.9478 57.7495 38.3439 53.5662 43.3837 52.1874L41.8004 46.4001ZM28.9478 62.4071C28.9478 63.5652 29.499 64.4457 29.8452 64.9102C30.243 65.444 30.7379 65.9135 31.2344 66.3145C32.2376 67.1246 33.5646 67.909 35.0793 68.5933C38.1202 69.967 42.2668 71.0939 46.8573 71.0939V65.0939C43.2126 65.0939 39.9045 64.1892 37.5494 63.1253C36.3661 62.5908 35.5098 62.0549 35.0041 61.6466C34.7463 61.4383 34.6555 61.324 34.6561 61.3249C34.6591 61.3289 34.7181 61.4072 34.7828 61.5583C34.8459 61.7057 34.9478 62.0011 34.9478 62.4071H28.9478ZM46.8573 71.0939C51.3866 71.0939 55.5169 70.1126 58.5852 68.7945C60.1096 68.1397 61.4779 67.3563 62.5223 66.4822C63.0438 66.0457 63.5593 65.5244 63.9646 64.9143C64.3597 64.3194 64.7685 63.4583 64.7685 62.4071H58.7685C58.7685 62.1391 58.8218 61.9319 58.8683 61.8024C58.914 61.6753 58.959 61.606 58.9665 61.5947C58.9745 61.5827 58.9041 61.6862 58.6711 61.8812C58.2063 62.2703 57.3909 62.7774 56.217 63.2817C53.8884 64.282 50.5631 65.0939 46.8573 65.0939V71.0939ZM64.7685 62.4071C64.7685 54.6746 59.1886 48.3886 51.9156 46.3996L50.3328 52.187C55.3725 53.5653 58.7685 57.7487 58.7685 62.4071H64.7685ZM48.1242 49.071V49.2933H54.1242V49.071H48.1242ZM52.7505 51.5919C56.2056 49.363 58.3902 45.3104 58.3902 40.8272H52.3902C52.3902 43.3901 51.1435 45.4884 49.4979 46.5501L52.7505 51.5919ZM58.3902 40.8272C58.3902 34.2299 53.5255 28.3105 46.858 28.3105V34.3105C49.613 34.3105 52.3902 36.9113 52.3902 40.8272H58.3902ZM46.858 28.3105C40.1886 28.3105 35.3258 34.2302 35.3258 40.8272H41.3258C41.3258 36.911 44.1017 34.3105 46.858 34.3105V28.3105ZM35.3258 40.8272C35.3258 45.3107 37.5112 49.3628 40.9655 51.5916L44.2185 46.5499C42.5726 45.4879 41.3258 43.3895 41.3258 40.8272H35.3258ZM45.592 49.2937V49.0707H39.592V49.2937H45.592Z" fill="#202058" mask="url(#path-3-inside-2)"/>
<g filter="url(#filter0_d)">
<path fill-rule="evenodd" clip-rule="evenodd" d="M24.6839 49.561C15.61 52.0433 8.99414 59.7588 8.99414 68.8902C8.99414 71.283 18.8322 77.2726 30.9709 77.2726C43.1095 77.2726 52.9501 71.9859 52.9501 68.8902C52.9501 59.7581 46.3349 52.0422 37.2604 49.5604V47.0196C40.7974 44.5697 43.1648 40.0927 43.1648 34.9749C43.1648 27.2266 37.7361 20.9473 31.0424 20.9473C24.3466 20.9473 18.9201 27.2266 18.9201 34.9749C18.9201 40.0242 21.2255 44.4496 24.6839 46.92V49.561Z" fill="#3434FF"/>
</g>
<path d="M42.2459 10.3064V4.27345C42.2459 3.16888 41.3504 2.27345 40.2459 2.27345H34.2129" stroke="#202058" stroke-width="3" stroke-linecap="round"/>
<path d="M42.0628 2.45703L32.6148 11.905C32.449 12.0709 32.2522 12.2025 32.0355 12.2923C31.8189 12.3821 31.5866 12.4283 31.3521 12.4283C31.1176 12.4283 30.8854 12.3821 30.6687 12.2923C30.4521 12.2025 30.2552 12.0709 30.0895 11.905L26.3669 8.18247C26.2011 8.01659 26.0043 7.885 25.7876 7.79521C25.571 7.70543 25.3388 7.65922 25.1042 7.65922C24.8697 7.65922 24.6375 7.70543 24.4208 7.79521C24.2042 7.885 24.0073 8.01659 23.8416 8.18247L15.2861 16.7379" stroke="#202058" stroke-width="3" stroke-linecap="round"/>
<defs>
<filter id="filter0_d" x="0.994141" y="17.9473" width="59.9559" height="72.3253" filterUnits="userSpaceOnUse" color-interpolation-filters="sRGB">
<feFlood flood-opacity="0" result="BackgroundImageFix"/>
<feColorMatrix in="SourceAlpha" type="matrix" values="0 0 0 0 0 0 0 0 0 0 0 0 0 0 0 0 0 0 127 0"/>
<feOffset dy="5"/>
<feGaussianBlur stdDeviation="4"/>
<feColorMatrix type="matrix" values="0 0 0 0 0.203922 0 0 0 0 0.203922 0 0 0 0 1 0 0 0 0.23 0"/>
<feBlend mode="normal" in2="BackgroundImageFix" result="effect1_dropShadow"/>
<feBlend mode="normal" in="SourceGraphic" in2="effect1_dropShadow" result="shape"/>
</filter>
</defs>
</svg>
