<svg width="96" height="80" viewBox="0 0 96 80" fill="none" xmlns="http://www.w3.org/2000/svg">
<path d="M3.67676 21.5039V48.1811Z" fill="white"/>
<path d="M3.67676 21.5039V48.1811" stroke="#202058" stroke-width="3" stroke-linecap="round"/>
<path d="M21.2174 29.4258V51.4493C21.2119 52.5134 21.5267 53.5546 22.1208 54.4375C22.7148 55.3204 23.5607 56.0042 24.5485 56.4L45.7658 64.887C47.0309 65.389 48.44 65.389 49.7051 64.887L70.9224 56.4C71.9109 56.0045 72.7578 55.321 73.353 54.4382C73.9483 53.5554 74.2645 52.514 74.2606 51.4493V29.4258" fill="white"/>
<path d="M21.2174 29.4258V51.4493C21.2119 52.5134 21.5267 53.5546 22.1208 54.4375C22.7148 55.3204 23.5607 56.0042 24.5485 56.4L45.7658 64.887C47.0309 65.389 48.44 65.389 49.7051 64.887L70.9224 56.4C71.9109 56.0045 72.7578 55.321 73.353 54.4382C73.9483 53.5554 74.2645 52.514 74.2606 51.4493V29.4258" stroke="#202058" stroke-width="3" stroke-linecap="round"/>
<path d="M47.9866 2.00025C47.8231 2.00009 47.6611 2.03205 47.5099 2.09433L4.75752 19.702C3.07051 20.3968 3.1185 22.8025 4.83187 23.4295L47.0516 38.8788C47.4954 39.0412 47.9824 39.0412 48.4262 38.8788L90.6722 23.4199C92.3822 22.7941 92.4345 20.3948 90.7534 19.6952L48.4651 2.09609C48.3134 2.03299 48.1508 2.00042 47.9866 2.00025V2.00025Z" fill="white" stroke="#202058" stroke-width="3" stroke-linecap="round"/>
<g filter="url(#filter0_d)">
<circle cx="74.261" cy="56.5774" r="9.31761" fill="white"/>
<path d="M90.4497 53.9808L87.6737 51.7485C87.4579 51.5746 87.2894 51.349 87.1838 51.0927C87.0782 50.8364 87.039 50.5576 87.0696 50.282L87.4548 46.7404C87.5067 46.2701 87.4523 45.7942 87.2956 45.3477C87.1389 44.9013 86.8838 44.4958 86.5494 44.1612C86.2149 43.8265 85.8095 43.5713 85.3631 43.4144C84.9167 43.2575 84.4408 43.2029 83.9705 43.2546L80.4243 43.6352C80.1488 43.6658 79.8701 43.6264 79.6138 43.5208C79.3575 43.4153 79.1319 43.2468 78.9578 43.0311L76.7256 40.2567C76.4198 39.9033 76.0415 39.6199 75.6165 39.4257C75.1915 39.2314 74.7296 39.1309 74.2623 39.1309C73.795 39.1309 73.3332 39.2314 72.9081 39.4257C72.4831 39.6199 72.1048 39.9033 71.799 40.2567L69.5668 43.0311C69.3934 43.2476 69.1679 43.4166 68.9114 43.5222C68.655 43.6279 68.3759 43.6668 68.1003 43.6352L64.5587 43.2546C64.0884 43.2027 63.6124 43.2571 63.166 43.4138C62.7196 43.5705 62.3141 43.8255 61.9794 44.16C61.6448 44.4945 61.3896 44.8999 61.2327 45.3463C61.0758 45.7927 61.0212 46.2686 61.0729 46.7389L61.458 50.2805C61.4894 50.5561 61.4505 50.8351 61.3448 51.0916C61.2392 51.348 61.0703 51.5735 60.8539 51.747L58.075 53.9808C57.7064 54.2768 57.4089 54.6519 57.2045 55.0782C57.0001 55.5045 56.894 55.9713 56.894 56.444C56.894 56.9168 57.0001 57.3836 57.2045 57.8099C57.4089 58.2362 57.7064 58.6113 58.075 58.9073L60.8509 61.1396C61.0672 61.3132 61.236 61.5387 61.3416 61.7951C61.4472 62.0515 61.4863 62.3305 61.455 62.6061L61.0699 66.1477C61.018 66.618 61.0724 67.0939 61.2291 67.5404C61.3858 67.9868 61.6408 68.3923 61.9753 68.7269C62.3098 69.0616 62.7152 69.3168 63.1616 69.4737C63.6079 69.6306 64.0838 69.6852 64.5541 69.6335L68.0973 69.2483C68.3728 69.2177 68.6516 69.2569 68.9079 69.3625C69.1643 69.4681 69.3898 69.6366 69.5638 69.8525L71.799 72.6329C72.0951 73.0015 72.4701 73.299 72.8965 73.5034C73.3228 73.7077 73.7895 73.8138 74.2623 73.8138C74.7351 73.8138 75.2019 73.7077 75.6282 73.5034C76.0545 73.299 76.4295 73.0015 76.7256 72.6329L78.9578 69.857C79.1319 69.6413 79.3575 69.4728 79.6138 69.3673C79.8701 69.2617 80.1488 69.2223 80.4243 69.2529L83.966 69.638C84.4363 69.6899 84.9122 69.6355 85.3586 69.4788C85.8051 69.3221 86.2106 69.0671 86.5452 68.7326C86.8799 68.3981 87.1351 67.9927 87.292 67.5463C87.4489 67.1 87.5035 66.624 87.4517 66.1537L87.0666 62.6106C87.0351 62.335 87.074 62.0559 87.1796 61.7995C87.2853 61.543 87.4542 61.3175 87.6707 61.1441L90.4466 58.9119C90.8152 58.6158 91.1127 58.2408 91.3171 57.8145C91.5215 57.3881 91.6276 56.9214 91.6276 56.4486C91.6276 55.9758 91.5215 55.509 91.3171 55.0827C91.1127 54.6564 90.8152 54.2814 90.4466 53.9853L90.4497 53.9808ZM74.8664 61.0761C74.6344 61.3783 74.341 61.6279 74.0055 61.8084C73.67 61.989 73.3 62.0963 72.92 62.1234C72.5399 62.1505 72.1585 62.0968 71.8007 61.9657C71.443 61.8347 71.1171 61.6293 70.8445 61.3631L67.1534 57.681C67.0091 57.5417 66.8941 57.375 66.8149 57.1907C66.7357 57.0065 66.6941 56.8083 66.6923 56.6078C66.6906 56.4072 66.7288 56.2084 66.8048 56.0227C66.8807 55.8371 66.9928 55.6685 67.1346 55.5267C67.2764 55.3849 67.4451 55.2728 67.6307 55.1968C67.8163 55.1209 68.0152 55.0827 68.2157 55.0844C68.4162 55.0861 68.6144 55.1278 68.7987 55.207C68.9829 55.2861 69.1496 55.4012 69.2889 55.5454L72.6886 58.9451L78.5923 51.0749C78.8327 50.7545 79.1905 50.5427 79.587 50.486C79.7833 50.458 79.9833 50.4689 80.1754 50.5181C80.3675 50.5673 80.5481 50.6539 80.7068 50.7729C80.8654 50.8919 80.9991 51.041 81.1001 51.2116C81.2012 51.3823 81.2676 51.5712 81.2957 51.7675C81.3237 51.9639 81.3128 52.1638 81.2636 52.356C81.2144 52.5481 81.1278 52.7286 81.0088 52.8873L74.8664 61.0761Z" fill="#3434FF"/>
</g>
<defs>
<filter id="filter0_d" x="52.894" y="37.1309" width="42.7335" height="42.683" filterUnits="userSpaceOnUse" color-interpolation-filters="sRGB">
<feFlood flood-opacity="0" result="BackgroundImageFix"/>
<feColorMatrix in="SourceAlpha" type="matrix" values="0 0 0 0 0 0 0 0 0 0 0 0 0 0 0 0 0 0 127 0"/>
<feOffset dy="2"/>
<feGaussianBlur stdDeviation="2"/>
<feColorMatrix type="matrix" values="0 0 0 0 0.203922 0 0 0 0 0.203922 0 0 0 0 1 0 0 0 0.29 0"/>
<feBlend mode="normal" in2="BackgroundImageFix" result="effect1_dropShadow"/>
<feBlend mode="normal" in="SourceGraphic" in2="effect1_dropShadow" result="shape"/>
</filter>
</defs>
</svg>
